<svg height='100px' width='100px'  fill="#333333" xmlns:dc="http://purl.org/dc/elements/1.1/" xmlns:cc="http://creativecommons.org/ns#" xmlns:rdf="http://www.w3.org/1999/02/22-rdf-syntax-ns#" xmlns:svg="http://www.w3.org/2000/svg" xmlns="http://www.w3.org/2000/svg" xmlns:sodipodi="http://sodipodi.sourceforge.net/DTD/sodipodi-0.dtd" xmlns:inkscape="http://www.inkscape.org/namespaces/inkscape" viewBox="0 0 6.3499999 6.3500002" version="1.1" x="0px" y="0px"><g transform="translate(0,-2.1166667)"><path style="color:#000000;font-style:normal;font-variant:normal;font-weight:normal;font-stretch:normal;font-size:medium;line-height:normal;font-family:sans-serif;font-variant-ligatures:normal;font-variant-position:normal;font-variant-caps:normal;font-variant-numeric:normal;font-variant-alternates:normal;font-feature-settings:normal;text-indent:0;text-align:start;text-decoration:none;text-decoration-line:none;text-decoration-style:solid;text-decoration-color:#000000;letter-spacing:normal;word-spacing:normal;text-transform:none;writing-mode:lr-tb;direction:ltr;text-orientation:mixed;dominant-baseline:auto;baseline-shift:baseline;text-anchor:start;white-space:normal;shape-padding:0;clip-rule:nonzero;display:inline;overflow:visible;visibility:visible;opacity:1;isolation:auto;mix-blend-mode:normal;color-interpolation:sRGB;color-interpolation-filters:linearRGB;solid-color:#000000;solid-opacity:1;vector-effect:none;fill:#333333;fill-opacity:1;fill-rule:nonzero;stroke:none;stroke-width:0.5291667;stroke-linecap:round;stroke-linejoin:round;stroke-miterlimit:4;stroke-dasharray:none;stroke-dashoffset:0;stroke-opacity:1;paint-order:normal;color-rendering:auto;image-rendering:auto;shape-rendering:auto;text-rendering:auto;enable-background:accumulate" d="m 3.175,2.1166183 c -1.3119943,-10e-8 -2.38125012,1.0692557 -2.38125004,2.3812501 -3e-8,0.8025693 0.56644354,1.7236387 1.10587564,2.4990722 0.5394322,0.7754339 1.0774537,1.3807945 1.0774537,1.3807943 a 0.2646098,0.2646098 0 0 0 0.3958415,0 c 0,0 0.5380215,-0.6053604 1.0774535,-1.3807943 C 4.9898068,6.2215071 5.5562501,5.3004377 5.5562501,4.4978684 5.5562501,3.185874 4.4869942,2.1166182 3.175,2.1166183 Z m 0,0.5291667 c 1.0260114,-10e-8 1.8520834,0.826072 1.8520834,1.8520834 0,0.5203473 -0.4918901,1.4513613 -1.0107909,2.197282 C 3.5962662,7.2989376 3.3200904,7.604512 3.175,7.7726039 3.0299097,7.604512 2.7537336,7.2989376 2.3337077,6.6951504 1.8148065,5.9492297 1.3229166,5.0182157 1.3229166,4.4978684 1.3229165,3.471857 2.1489886,2.6457849 3.175,2.645785 Z m 0,0.5291667 c -0.7274928,0 -1.3229167,0.5954238 -1.3229167,1.3229167 0,0.7274928 0.5954239,1.3229167 1.3229167,1.3229167 0.7274928,0 1.3229167,-0.5954239 1.3229167,-1.3229167 0,-0.7274929 -0.5954239,-1.3229167 -1.3229167,-1.3229167 z m 0,0.5291666 c 0.44151,10e-8 0.79375,0.3522401 0.79375,0.7937501 0,0.4415099 -0.35224,0.79375 -0.79375,0.79375 -0.4415099,0 -0.79375,-0.3522401 -0.79375,-0.79375 0,-0.44151 0.3522401,-0.79375 0.79375,-0.7937501 z"></path></g></svg>