<svg height='100px' width='100px'  fill="#333333" xmlns="http://www.w3.org/2000/svg" data-name="Layer 1" viewBox="0 0 1024 1024" x="0px" y="0px"><title>icon</title><path fill="#333333" d="M510.6 128.4c211 0 382.6 171.6 382.6 382.6S721.6 893.6 510.6 893.6 128 722 128 511s171.6-382.6 382.6-382.6m0-65.2C263.3 63.2 62.9 263.7 62.9 511s200.5 447.8 447.8 447.8S958.5 758.3 958.5 511 757.9 63.2 510.6 63.2zM699.7 721.7c-6.4 0-12.8-1.9-18.5-5.8L496.3 588.2c-8.8-6.1-14.1-16.1-14.1-26.8V274.9c0-18 14.6-32.6 32.6-32.6s32.6 14.6 32.6 32.6v269.4l170.9 118c14.8 10.2 18.5 30.5 8.3 45.3-6.4 9.1-16.5 14.1-26.9 14.1z"></path></svg>